<?xml version="1.0" standalone="no"?>
<!DOCTYPE svg PUBLIC "-//W3C//DTD SVG 20010904//EN"
 "http://www.w3.org/TR/2001/REC-SVG-20010904/DTD/svg10.dtd">
<svg version="1.0" xmlns="http://www.w3.org/2000/svg"
 width="260.000000pt" height="260.000000pt" viewBox="0 0 260.000000 260.000000"
 preserveAspectRatio="xMidYMid meet">
<metadata>
Created by potrace 1.11, written by Peter Selinger 2001-2013
</metadata>
<g transform="translate(0.000000,260.000000) scale(0.100000,-0.100000)"
fill="#000000" stroke="none">
<path d="M20 1300 l0 -1280 1280 0 1280 0 0 1280 0 1280 -1280 0 -1280 0 0
-1280z m2102 538 c-9 -9 -9 -15 1 -27 10 -14 10 -14 -5 -3 -17 14 -14 42 5 42
8 0 7 -4 -1 -12z m-1302 -320 l205 -306 5 306 5 307 65 0 65 0 3 -437 2 -438
-68 0 -69 0 -206 312 -207 313 0 -313 0 -312 -70 0 -70 0 0 440 0 441 68 -3
67 -3 205 -307z m958 296 c42 -8 97 -27 122 -42 224 -130 293 -428 145 -633
-19 -27 -35 -52 -35 -55 0 -3 25 -34 55 -67 l55 -62 -82 -3 c-76 -3 -83 -1
-108 23 l-27 26 -61 -20 c-92 -31 -159 -36 -243 -17 -259 58 -403 316 -318
573 44 136 187 258 331 282 77 13 81 13 166 -5z m-1093 -1014 c3 -5 -3 -10
-14 -10 -30 0 -26 -18 5 -26 37 -9 30 -49 -8 -49 -16 0 -28 5 -28 10 1 6 10 9
20 7 11 -2 20 2 20 7 0 6 -6 11 -14 11 -7 0 -19 7 -26 15 -10 12 -10 18 0 30
14 17 36 20 45 5z m165 -10 c24 -24 24 -29 4 -58 -17 -24 -53 -29 -72 -10 -17
17 -15 54 4 72 21 21 40 20 64 -4z m126 -60 c13 0 24 -4 24 -10 0 -5 -13 -10
-30 -10 -16 0 -30 5 -31 10 -2 21 -1 70 2 83 1 6 4 -7 6 -30 4 -38 7 -43 29
-43z m114 30 c0 -27 -4 -50 -10 -50 -11 0 -14 83 -3 93 12 12 13 8 13 -43z
m147 35 c2 -6 -9 -11 -24 -10 -23 0 -28 -4 -28 -25 0 -21 5 -25 28 -25 15 1
27 -2 27 -7 0 -13 -21 -20 -45 -14 -33 8 -43 50 -19 77 18 20 55 22 61 4z m90
-62 c-2 -16 -4 -3 -4 27 0 30 2 43 4 28 2 -16 2 -40 0 -55z m153 67 c0 -5 -7
-10 -15 -10 -11 0 -15 -11 -15 -40 0 -22 -4 -40 -10 -40 -5 0 -10 18 -10 40 0
30 -4 40 -16 40 -8 0 -12 5 -9 10 3 6 22 10 41 10 19 0 34 -4 34 -10z m149
-22 c14 -24 14 -28 -3 -47 -23 -25 -49 -27 -70 -5 -21 20 -20 48 0 69 23 22
56 15 73 -17z m145 16 c12 -12 13 -20 5 -35 -7 -15 -7 -24 2 -35 6 -8 7 -14 1
-14 -5 0 -15 7 -22 15 -7 8 -16 15 -21 15 -5 0 -9 -7 -9 -15 0 -8 -4 -15 -10
-15 -5 0 -10 23 -10 50 0 46 2 50 24 50 14 0 32 -7 40 -16z m141 6 c4 -6 -5
-10 -19 -10 -33 0 -34 -16 -1 -24 26 -7 35 -39 14 -51 -14 -9 -61 3 -54 14 3
5 14 7 25 4 11 -3 20 0 20 6 0 6 -6 11 -14 11 -7 0 -19 7 -26 15 -10 12 -10
18 0 30 14 17 46 20 55 5z"/>
<path d="M1586 1674 c-69 -22 -156 -110 -181 -183 -25 -76 -17 -183 18 -243
37 -63 84 -107 146 -135 47 -22 63 -25 137 -21 46 2 87 8 91 11 4 4 -9 23 -27
42 l-34 35 87 0 86 0 26 35 c54 70 68 175 38 274 -24 77 -110 163 -185 186
-64 19 -138 18 -202 -1z"/>
<path d="M794 775 c-8 -21 2 -45 19 -45 8 0 20 7 27 15 10 12 10 18 0 30 -7 8
-19 15 -27 15 -7 0 -16 -7 -19 -15z"/>
<path d="M1564 775 c-9 -23 3 -45 25 -45 25 0 34 14 26 40 -7 23 -43 27 -51 5z"/>
<path d="M1730 775 c0 -10 7 -15 18 -13 21 4 19 22 -2 26 -10 2 -16 -3 -16
-13z"/>
</g>
</svg>
